<svg width="489" height="489" viewBox="0 0 489 489" fill="none" xmlns="http://www.w3.org/2000/svg">
<circle cx="244.5" cy="244.5" r="244.5" fill="#FFD500"/>
<path d="M338.771 368.943C322.301 368.915 313.297 374.68 305.052 379.967C295.329 386.19 286.616 391.777 268.567 387.182C268.191 387.085 267.097 386.729 265.45 386.194C256.211 383.19 229.021 374.352 213.577 374.158C205.994 374.06 203.212 375.68 203.183 378.109C203.115 383.453 213.682 392.806 219.928 398.332H219.936C221.571 399.781 222.92 400.972 223.772 401.834C229.72 407.838 231.726 413.514 231.016 417.652C230.632 419.903 229.473 421.705 227.713 422.907C226.001 424.065 223.744 424.636 221.111 424.454C214.582 423.992 205.509 418.818 196.804 406.312C194.006 402.296 191.268 398.377 188.369 395.741C185.643 393.255 182.744 391.895 179.454 392.709C174.257 393.984 173.518 398.875 172.702 404.263C171.802 410.223 170.817 416.725 164.312 420.608C158.409 424.138 153.462 423.239 148.363 422.316C144.535 421.624 140.614 420.915 136.209 422.272C131.768 423.644 127.152 424.891 122.456 425.539C118.338 426.106 114.171 426.207 110 425.519L111.353 423.47C114.958 423.944 118.576 423.822 122.158 423.332C126.72 422.701 131.227 421.478 135.567 420.142C140.477 418.628 144.668 419.385 148.75 420.126C153.438 420.972 157.981 421.794 163.185 418.689C168.782 415.349 169.682 409.389 170.506 403.931C171.439 397.765 172.282 392.17 178.937 390.538C183.071 389.518 186.6 391.121 189.855 394.085C192.94 396.891 195.75 400.915 198.621 405.037C206.878 416.911 215.289 421.806 221.256 422.223C223.38 422.373 225.165 421.94 226.473 421.053C227.725 420.199 228.553 418.899 228.831 417.276C229.425 413.782 227.58 408.838 222.201 403.405C221.454 402.652 220.11 401.458 218.466 400.008H218.47C211.937 394.227 200.89 384.449 200.967 378.085C201.015 374.324 204.399 371.818 213.605 371.931C229.388 372.129 256.809 381.044 266.124 384.073C267.707 384.583 268.753 384.923 269.108 385.016C286.236 389.376 294.57 384.04 303.861 378.089C309.098 374.733 314.634 371.186 322.104 368.963C327.639 367.319 334.968 366.846 338.771 368.943Z" fill="#00509D"/>
<path fill-rule="evenodd" clip-rule="evenodd" d="M134.509 388.393C124.831 377.907 130.496 354.967 133.972 341.704C138.773 324.732 144.491 309.501 150.584 298.059C160.363 292.124 200.24 276.383 229.086 226.143L194.874 241.585C237.04 213.601 265.474 160.827 318.098 132.292C318.098 132.292 282.437 133.98 263.499 147.316C263.499 147.316 285.639 128.377 341.545 120.109L320.654 109.696L349.14 113.429C349.14 113.429 362.994 79.7566 400 67.4042C400 67.4042 268.49 36.5333 224.345 138.255C224.345 138.255 232.271 113.057 244.413 91.3397C244.413 91.3397 182.579 104.635 152.901 189.697C152.901 189.697 160.02 154.786 167.562 139.227C167.562 139.227 129.563 173.438 131.158 241.216C131.158 241.216 122.372 218.382 124.71 199.362C124.71 199.362 94.0831 241.33 132.054 289.152C137.021 277.994 185.397 164.563 259.966 125.745C170.942 192.042 121.596 316.622 110 425.523L134.509 388.393Z" fill="black"/>
</svg>
