<svg width="400" height="400" viewBox="0 0 400 400" fill="none" xmlns="http://www.w3.org/2000/svg">
<circle cx="200" cy="200" r="200" fill="url(#paint0_linear_119_106)"/>
<path d="M94.2522 268.409C105.256 280.562 116.273 292.702 127.277 304.856C172.004 262.276 216.73 219.696 261.444 177.116C232.495 200.261 195.121 225.429 148.824 246.763C129.794 255.531 111.475 262.626 94.2522 268.409Z" fill="white"/>
<path d="M111.687 252.358C139.515 241.417 170.346 227.24 202.736 208.729C253.556 179.689 294.133 148.039 325.276 119.898C283.677 135.061 232.483 158.718 179.568 196.326C153.273 215.025 130.754 234.172 111.687 252.358Z" fill="white"/>
<path d="M305.947 83.3382C304.451 84.6747 302.968 86.0237 301.473 87.3601C298.32 83.8878 295.18 80.4155 292.027 76.9431C270.205 97.365 248.384 117.787 226.563 138.209C225.18 136.522 223.796 134.836 222.413 133.15C245.456 111.429 268.486 89.7208 291.528 68C296.339 73.1086 301.149 78.2296 305.947 83.3382Z" fill="white"/>
<path d="M342 104.709C331.083 92.4687 320.179 80.2406 309.262 68C264.199 110.23 219.148 152.448 174.085 194.678C203.221 171.758 240.782 146.889 287.254 125.918C306.346 117.3 324.715 110.342 342 104.709Z" fill="white"/>
<path d="M80.0819 282.392L90.2027 272.271L123.325 308.156L111.364 318.278L82.8421 326.559L69.041 306.316L80.0819 282.392Z" fill="white"/>
<path d="M58 329.319L68.1208 308.156L81.0019 327.479L60.7602 333L58 329.319Z" fill="white"/>
<defs>
<linearGradient id="paint0_linear_119_106" x1="308.5" y1="6.99999" x2="200" y2="400" gradientUnits="userSpaceOnUse">
<stop offset="0.000319267" stop-color="#5727B0"/>
<stop offset="1" stop-color="#28144D" stop-opacity="0.59"/>
</linearGradient>
</defs>
</svg>
