<svg width="375" height="468" viewBox="0 0 375 468" fill="none" xmlns="http://www.w3.org/2000/svg">
<path d="M295.109 394.318C273.865 394.281 262.25 401.698 251.615 408.5C239.073 416.505 227.833 423.693 204.552 417.781C204.068 417.656 202.656 417.198 200.531 416.51C188.615 412.646 153.542 401.276 133.62 401.026C123.839 400.901 120.25 402.984 120.214 406.109C120.125 412.984 133.755 425.016 141.813 432.125H141.823C143.932 433.99 145.672 435.521 146.771 436.63C154.443 444.354 157.031 451.656 156.115 456.979C155.62 459.875 154.125 462.193 151.854 463.74C149.646 465.229 146.734 465.964 143.339 465.729C134.917 465.135 123.214 458.479 111.984 442.391C108.375 437.224 104.844 432.182 101.104 428.792C97.5885 425.594 93.849 423.844 89.6042 424.891C82.901 426.531 81.9479 432.823 80.8958 439.755C79.7344 447.422 78.4635 455.786 70.0729 460.781C62.4583 465.323 56.0781 464.167 49.5 462.979C44.5625 462.089 39.5052 461.177 33.8229 462.922C28.0937 464.688 22.1406 466.292 16.0833 467.125C10.7708 467.854 5.39583 467.984 0.015625 467.099L1.76042 464.464C6.41146 465.073 11.0781 464.917 15.6979 464.286C21.5833 463.474 27.3958 461.901 32.9948 460.182C39.3281 458.234 44.7344 459.208 50 460.161C56.0469 461.25 61.9063 462.307 68.6198 458.313C75.8385 454.016 77 446.349 78.0625 439.328C79.2656 431.396 80.3542 424.198 88.9375 422.099C94.2708 420.786 98.8229 422.849 103.021 426.661C107 430.271 110.625 435.448 114.328 440.75C124.979 456.026 135.828 462.323 143.526 462.859C146.266 463.052 148.568 462.495 150.255 461.354C151.87 460.255 152.938 458.583 153.297 456.495C154.063 452 151.682 445.641 144.745 438.651C143.781 437.682 142.047 436.146 139.927 434.281H139.932C131.505 426.844 117.255 414.266 117.354 406.078C117.417 401.24 121.781 398.016 133.656 398.161C154.016 398.417 189.385 409.885 201.401 413.781C203.443 414.438 204.792 414.875 205.25 414.995C227.344 420.604 238.094 413.74 250.078 406.083C256.833 401.766 263.974 397.203 273.609 394.344C280.75 392.229 290.203 391.62 295.109 394.318Z" fill="#FFD500"/>
<path fill-rule="evenodd" clip-rule="evenodd" d="M31.6302 419.339C19.1458 405.849 26.4531 376.339 30.9375 359.276C37.1302 337.443 44.5052 317.849 52.3646 303.13C64.9792 295.495 116.417 275.245 153.625 210.615L109.495 230.479C163.885 194.479 200.563 126.589 268.443 89.8802C268.443 89.8802 222.443 92.0521 198.016 109.208C198.016 109.208 226.573 84.8437 298.688 74.2083L271.74 60.8125L308.484 65.6146C308.484 65.6146 326.354 22.2969 374.089 6.40624C374.089 6.40624 204.453 -33.3073 147.51 97.5521C147.51 97.5521 157.734 65.1354 173.396 37.1979C173.396 37.1979 93.6354 54.3021 55.3542 163.729C55.3542 163.729 64.5365 118.818 74.2656 98.8021C74.2656 98.8021 25.25 142.812 27.3073 230.005C27.3073 230.005 15.974 200.63 18.9896 176.161C18.9896 176.161 -20.5156 230.151 28.4635 291.672C34.8698 277.318 97.2708 131.396 193.458 81.4583C78.625 166.745 14.974 327.01 0.015625 467.104L31.6302 419.339Z" fill="#00509D"/>
</svg>
